<?xml version="1.0" standalone="no"?>
<!DOCTYPE svg PUBLIC "-//W3C//DTD SVG 20010904//EN"
 "http://www.w3.org/TR/2001/REC-SVG-20010904/DTD/svg10.dtd">
<svg version="1.0" xmlns="http://www.w3.org/2000/svg"
 width="265.000000pt" height="232.000000pt" viewBox="0 0 265.000000 232.000000"
 preserveAspectRatio="xMidYMid meet">

<g transform="translate(0.000000,232.000000) scale(0.100000,-0.100000)"
fill="#000000" stroke="none">
<path d="M890 2252 c-134 -70 -227 -202 -335 -477 -44 -112 -136 -415 -151
-498 -3 -20 -10 -39 -14 -42 -4 -2 -62 5 -128 17 -103 18 -126 19 -152 8 -73
-30 -79 -139 -9 -175 48 -25 364 -73 634 -95 323 -28 914 -28 1225 0 244 21
526 65 593 92 30 12 57 54 57 88 0 35 -27 76 -59 90 -26 10 -49 9 -143 -8
-225 -41 -355 -57 -617 -73 -300 -19 -1106 -1 -1188 26 -15 5 36 202 102 395
75 220 156 375 229 443 43 38 83 36 170 -12 169 -93 288 -93 462 -1 103 54
126 53 186 -11 57 -61 141 -227 195 -384 43 -129 72 -165 128 -165 27 0 44 8
66 29 41 41 38 86 -12 223 -86 234 -162 370 -254 457 -78 73 -130 95 -219 89
-60 -4 -87 -13 -175 -56 -136 -68 -155 -68 -291 0 -95 47 -111 52 -185 55 -63
3 -88 0 -115 -15z"/>
<path d="M510 807 c-49 -16 -123 -93 -138 -143 -38 -130 31 -359 146 -485 29
-31 78 -70 114 -90 61 -33 67 -34 173 -34 101 0 115 2 170 29 97 48 145 107
231 281 41 84 87 163 100 176 44 41 68 17 156 -162 88 -178 137 -239 227 -288
70 -37 153 -50 249 -39 223 26 371 224 372 497 0 101 -16 147 -70 202 -66 66
-111 77 -243 55 -217 -34 -289 -38 -727 -33 -338 4 -455 8 -525 21 -131 23
-195 27 -235 13z m215 -212 c55 -8 152 -18 215 -21 63 -3 120 -7 127 -9 8 -3
-4 -38 -36 -106 -78 -164 -124 -209 -219 -209 -30 0 -69 7 -88 16 -72 34 -133
135 -155 257 -15 81 -9 101 28 93 16 -3 73 -13 128 -21z m1379 -60 c0 -135
-43 -223 -127 -266 -32 -17 -54 -20 -112 -17 -101 5 -128 27 -198 165 -82 161
-82 153 0 153 71 0 284 23 363 39 75 15 75 15 74 -74z"/>
</g>
</svg>
